Coordinates
version=1
nRows=13
nColumns=36
inDegrees=yes

Units are S.I. units (second, meters, Newtons, ...)
If the header above contains a line with 'inDegrees', this indicates whether rotational values are in degrees (yes) or radians (no).

endheader
time	pelvis_tilt	pelvis_list	pelvis_rotation	pelvis_tx	pelvis_ty	pelvis_tz	hip_flexion_r	hip_adduction_r	hip_rotation_r	knee_angle_r	knee_angle_r_beta	ankle_angle_r	subtalar_angle_r	mtp_angle_r	hip_flexion_l	hip_adduction_l	hip_rotation_l	knee_angle_l	knee_angle_l_beta	ankle_angle_l	subtalar_angle_l	mtp_angle_l	lumbar_extension	lumbar_bending	lumbar_rotation	arm_flex_r	arm_add_r	arm_rot_r	elbow_flex_r	pro_sup_r	arm_flex_l	arm_add_l	arm_rot_l	elbow_flex_l	pro_sup_l
     14.96666670	     -0.36640962	     -1.63185728	     -2.73452138	      1.00035696	      0.91238310	      0.76060470	     29.47542326	     -1.49937789	     -1.06876782	      6.70208906	      0.11697352	      5.15163794	      0.26780547	     -7.49999987	     -9.59035147	     -0.30305182	      5.48660648	     12.31729114	      0.21497729	     18.22538472	     -8.38145787	     -7.49999987	    -17.14004657	      0.59066181	     -5.40782853	     -4.32114591	    -11.54173854	     -6.22461825	     28.79147490	     80.12326257	     15.72236069	    -17.47898460	      5.97566328	     47.57004606	     80.07905288
     14.98333330	     -0.78357418	     -1.71649926	     -2.36405428	      1.00172779	      0.90580144	      0.75979481	     30.21347854	     -1.68277471	     -0.82416312	      4.67393798	      0.08157561	      6.34258965	      0.80933673	     -7.49999987	    -10.28410572	     -0.52329563	      5.55372259	     13.44003409	      0.23457285	     19.57590977	     -8.34019642	     -7.49999987	    -16.10669573	      0.95860046	     -5.90330436	     -5.12349891	    -11.65778998	     -6.60522178	     28.19407311	     80.23413239	     15.88897357	    -17.15139317	      5.97680563	     47.87681402	     80.12218647
     15.00000000	     -1.44683306	     -1.90622790	     -1.99589516	      1.00357211	      0.89984207	      0.75950698	     30.96698776	     -1.63274025	     -0.76491453	      4.02650816	      0.07027582	      6.81260857	      1.52291875	     -7.49999987	    -10.66852563	     -0.93881550	      5.23361328	     14.79518631	      0.25822471	     20.87254007	     -7.59510340	     -7.49999987	    -14.71927259	      1.41621150	     -6.39115270	     -5.65843850	    -11.87450599	     -7.45329662	     27.26165030	     80.39907603	     15.83545232	    -16.66931205	      5.76353961	     48.04708747	     80.15727768
     15.01666670	     -2.14246202	     -2.31003510	     -1.60341471	      1.00507180	      0.89502753	      0.76033321	     31.41166136	     -1.19016369	     -0.67440194	      4.68241791	      0.08172361	      6.01848984	      1.62648938	     -7.49999987	    -10.98247173	     -1.60953148	      4.73137064	     16.39838798	      0.28620586	     21.50777196	     -6.82859466	     -7.49999987	    -13.35653792	      2.09098196	     -6.79488074	     -5.98043476	    -12.21116807	     -8.51411849	     26.32717271	     80.24373222	     15.67380844	    -15.91022141	      5.23837400	     48.29554407	     79.69453355
     15.03333330	     -2.97298365	     -2.78219273	     -1.21177894	      1.00722808	      0.89072687	      0.76233748	     31.78996312	     -0.52155327	     -0.57218638	      6.25983766	      0.10925478	      4.37161926	      1.37710127	     -7.49999987	    -11.13231907	     -2.39316106	      4.10309441	     18.15728126	      0.31690434	     21.07284803	     -5.95985546	     -7.49999987	    -11.83351143	      2.82956194	     -7.29208584	     -6.14843176	    -12.71540104	     -9.11762547	     25.64454062	     80.70588347	     15.23042644	    -15.09160818	      4.45769541	     48.61875311	     79.70233431
     15.05000000	     -3.67913965	     -3.31732309	     -0.93775971	      1.01205612	      0.88759660	      0.76543501	     31.96117703	      0.35525932	     -0.37967516	      8.36655172	      0.14602387	      2.57562738	      1.07841354	     -7.49999987	    -11.43322834	     -3.24611530	      3.46528032	     19.95186278	      0.34822570	     19.37746240	     -5.25169003	     -7.49999987	    -10.42885875	      3.58184371	     -7.89655425	     -6.11527288	    -13.38039222	     -9.02260029	     25.14227810	     81.98987088	     14.26707530	    -14.23423050	      2.85487527	     49.11797503	     80.08397051
     15.06666670	     -4.42315987	     -4.07653909	     -0.89069980	      1.01987180	      0.88528765	      0.76957559	     32.11163409	      1.59179162	     -0.16857868	     10.67049584	      0.18623529	      1.28212140	      0.86275505	     -7.49999987	    -11.62248834	     -4.39659939	      2.42637050	     21.83073150	      0.38101814	     16.80730473	     -3.87306701	     -7.49999987	     -8.71402767	      4.53770102	     -7.84734516	     -6.22297162	    -14.09488838	     -8.90007800	     24.32776638	     82.31198472	     13.34635388	    -13.07225583	      1.68321242	     48.40140113	     80.08522268
     15.08333330	     -4.72036710	     -4.98931915	     -1.02580958	      1.02802941	      0.88498185	      0.77387854	     31.76243232	      3.03460096	      0.04936579	     12.97587060	      0.22647167	      0.51926213	      0.78567762	     -7.49999987	    -12.01835796	     -5.65518103	      1.54615900	     23.92712560	      0.41760712	     13.30441640	     -3.11399539	     -7.49999987	     -7.56109501	      5.65640619	     -7.44022408	     -6.48924391	    -14.88866806	     -8.63801208	     24.07656178	     82.25654358	     12.30977052	    -11.97829397	      0.56670929	     47.22051421	     79.79210067
     15.10000000	     -4.93072465	     -5.91684501	     -1.40349634	      1.03489656	      0.88741950	      0.77727192	     31.25507069	      4.60914462	      0.74058142	     15.06333119	      0.26290473	      0.04414946	      0.14123573	     -7.49999987	    -12.04790903	     -6.96812525	      0.41191262	     26.44717735	      0.46159032	      9.33453831	     -2.33654550	     -7.49999987	     -6.59668045	      6.73421041	     -7.46143339	     -6.05199557	    -15.82164231	     -6.92246639	     23.34246336	     84.07638637	     10.45223289	    -10.86725442	     -2.54893703	     46.33725275	     81.44340553
     15.11666670	     -4.82624547	     -6.76669317	     -1.71908293	      1.03943890	      0.89426779	      0.77916382	     30.27585972	      6.00587866	      1.29211414	     16.76052627	      0.29252637	      0.05123928	     -0.43981649	     -7.49999987	    -11.78085664	     -8.22519629	     -0.34705270	     29.44510595	      0.51391405	      4.75031095	     -2.20064029	     -7.49999987	     -6.08652064	      7.70806452	     -6.58879849	     -6.05109754	    -16.50014697	     -6.34228313	     22.76033736	     83.77190137	      9.73721020	     -9.84791810	     -3.57933076	     43.83865590	     81.10123772
     15.13333330	     -4.39136744	     -7.46327545	     -1.95970666	      1.04232091	      0.90297095	      0.78139657	     28.74552523	      7.19750630	      1.91171318	     17.97751441	      0.31376682	      0.49346588	     -1.05140897	     -7.49999987	    -11.16312751	     -9.33131025	     -0.67141915	     32.99442086	      0.57586128	     -0.26605420	     -2.48006274	     -7.49999987	     -6.18706144	      8.49795049	     -5.79888611	     -5.77999681	    -17.02574596	     -5.66533427	     22.39419313	     82.86859304	      9.18227723	     -9.05130236	     -4.56869754	     41.29569359	     80.21335914
     15.15000000	     -3.81881588	     -7.89279883	     -2.15386282	      1.04428045	      0.91056938	      0.78520768	     26.86086544	      8.10647354	      2.67945962	     18.83454660	      0.32872485	      1.29447428	     -1.65414313	     -7.49999987	     -9.78694992	    -10.14786879	     -0.54040845	     37.45791525	      0.65376395	     -5.65684871	     -2.99956053	     -7.49999987	     -6.57696031	      8.93409858	     -4.93530124	     -5.39306198	    -17.39700090	     -4.76736761	     22.13752035	     81.58517367	      8.90318024	     -8.43927464	     -5.24864748	     38.40576923	     79.19053979
     15.16666670	     -3.11019469	     -8.05338849	     -2.14693303	      1.04451768	      0.91537072	      0.79014291	     24.72966959	      8.66312505	      3.44636927	     19.45125309	      0.33948841	      2.16534130	     -2.20586855	     -7.49999987	     -7.75471941	    -10.62635274	      0.12483290	     42.58352282	      0.74322268	    -10.63967328	     -3.77400321	     -7.49999987	     -7.45649561	      9.05221037	     -4.34142755	     -4.86919357	    -17.43247112	     -4.61125891	     22.44555805	     81.59235170	      8.30082427	     -8.26346917	     -5.62233803	     36.76076008	     79.20205008
